<svg xmlns="http://www.w3.org/2000/svg" width="37.59" height="28.229" viewBox="0 0 37.59 28.229">
  <g id="Grupo_85" data-name="Grupo 85" transform="translate(-1293.75 -210.547)">
    <ellipse id="Elipse_12" data-name="Elipse 12" cx="1.907" cy="1.685" rx="1.907" ry="1.685" transform="matrix(0.729, -0.685, 0.685, 0.729, 1303.287, 224.45)" fill="none" stroke="#002d60" stroke-miterlimit="10" stroke-width="1"/>
    <path id="Trazado_34" data-name="Trazado 34" d="M1314.413,242.417c.183-1.474.012-2.546-2.8-2.546-2.655,0-3.144,1.038-3.426,2.535" transform="translate(-5.955 -12.682)" fill="none" stroke="#002d60" stroke-miterlimit="10" stroke-width="1"/>
    <path id="Trazado_35" data-name="Trazado 35" d="M1299.126,240.933h28.849a1.706,1.706,0,0,0,1.521-1.616l1.906-18.363a1.332,1.332,0,0,0-1.185-1.616h-28.849a1.707,1.707,0,0,0-1.521,1.616l-1.906,18.363A1.332,1.332,0,0,0,1299.126,240.933Z" transform="translate(-1.323 -3.407)" fill="none" stroke="#002d60" stroke-miterlimit="10" stroke-width="2.5"/>
    <line id="Línea_18939" data-name="Línea 18939" x2="12.204" transform="translate(1314.595 223.454)" fill="none" stroke="#002d60" stroke-linecap="round" stroke-miterlimit="10" stroke-width="2"/>
    <line id="Línea_18940" data-name="Línea 18940" x2="10.17" transform="translate(1314.259 226.744)" fill="none" stroke="#002d60" stroke-linecap="round" stroke-miterlimit="10" stroke-width="2"/>
    <line id="Línea_18941" data-name="Línea 18941" x2="6.78" transform="translate(1313.922 230.034)" fill="none" stroke="#002d60" stroke-linecap="round" stroke-miterlimit="10" stroke-width="2"/>
    <path id="Trazado_36" data-name="Trazado 36" d="M1314.12,238.87h-9.51a.529.529,0,0,1-.536-.612l1.089-8.794a.713.713,0,0,1,.688-.612h9.51a.529.529,0,0,1,.536.612l-1.09,8.794A.712.712,0,0,1,1314.12,238.87Z" transform="translate(-4.097 -7.705)" fill="none" stroke="#002d60" stroke-miterlimit="10" stroke-width="1.5"/>
    <path id="Trazado_37" data-name="Trazado 37" d="M1295,218.23v-5.751a.682.682,0,0,1,.682-.682h10.936a1.809,1.809,0,0,1,1.69,1.164l1.22,3.059" fill="none" stroke="#002d60" stroke-miterlimit="10" stroke-width="2.5"/>
    <path id="Trazado_38" data-name="Trazado 38" d="M1297.338,242.566c-.851,0-2.338-.674-2.338-1.525V222.989" transform="translate(0 -5.056)" fill="none" stroke="#002d60" stroke-miterlimit="10" stroke-width="2.5"/>
  </g>
</svg>
