<svg xmlns="http://www.w3.org/2000/svg" width="18.667" height="22.441" viewBox="0 0 18.667 22.441">
  <g id="Grupo_181" data-name="Grupo 181" transform="translate(0.752 0.75)">
    <rect id="Rectángulo_398" data-name="Rectángulo 398" width="11.908" height="3.696" rx="1.097" transform="translate(4.846 0)" fill="none" stroke="#fff" stroke-miterlimit="10" stroke-width="1.5"/>
    <path id="Trazado_188" data-name="Trazado 188" d="M67.56,260.274" transform="translate(-63.125 -240.574)" fill="none" stroke="#fff" stroke-miterlimit="10" stroke-width="1.5"/>
    <path id="Trazado_189" data-name="Trazado 189" d="M67.56,241.123v.791a.45.45,0,0,0,.45.45H79.838a.451.451,0,0,0,.451-.45V228.443a.451.451,0,0,0-.451-.451s-2.218-.612-2.218-.861v-1.563a.45.45,0,0,0-.45-.45H71.09a.451.451,0,0,0-.451.45v1.563c0,.249-2.629.861-2.629.861a.45.45,0,0,0-.45.451v2.674" transform="translate(-63.125 -221.422)" fill="none" stroke="#fff" stroke-miterlimit="10" stroke-width="1.5"/>
    <path id="Trazado_190" data-name="Trazado 190" d="M60.791,242.518a1.848,1.848,0,0,1-2.591-.34h0a1.847,1.847,0,0,1,.34-2.591l4.559-3.5a1.847,1.847,0,0,1,2.591.34h0a1.848,1.848,0,0,1-.34,2.591L63.673,240.3" transform="translate(-57.817 -227.188)" fill="none" stroke="#fff" stroke-miterlimit="10" stroke-width="1.5"/>
    <path id="Trazado_191" data-name="Trazado 191" d="M67.238,249.35l2.289,1.431a1.848,1.848,0,0,0,2.547-.587h0a1.848,1.848,0,0,0-.587-2.546L66.612,244.6a1.848,1.848,0,0,0-2.547.587h0a1.849,1.849,0,0,0,.156,2.173" transform="translate(-61.068 -231.882)" fill="none" stroke="#fff" stroke-miterlimit="10" stroke-width="1.5"/>
    <ellipse id="Elipse_35" data-name="Elipse 35" cx="2.053" cy="2.053" rx="2.053" ry="2.053" transform="translate(2.074 15.398)" fill="none" stroke="#fff" stroke-miterlimit="10" stroke-width="1.5"/>
    <line id="Línea_35354" data-name="Línea 35354" x1="9.033" transform="translate(7.823 9.239)" fill="none" stroke="#fff" stroke-miterlimit="10" stroke-width="1.5"/>
    <line id="Línea_35355" data-name="Línea 35355" x1="5.338" transform="translate(11.518 17.451)" fill="none" stroke="#fff" stroke-miterlimit="10" stroke-width="1.5"/>
  </g>
</svg>
