<svg xmlns="http://www.w3.org/2000/svg" width="26.624" height="25.077" viewBox="0 0 26.624 25.077">
  <g id="Grupo_179" data-name="Grupo 179" transform="translate(0.75 0.75)">
    <path id="Trazado_181" data-name="Trazado 181" d="M155.36,248.658a2.672,2.672,0,0,0-2.771-2.561,2.813,2.813,0,0,0-2.409,1.3,2.813,2.813,0,0,0-2.409-1.3A2.672,2.672,0,0,0,145,248.658a2.4,2.4,0,0,0,.38,1.29l4.764,4.388,4.836-4.388A2.4,2.4,0,0,0,155.36,248.658Z" transform="translate(-131.791 -231.024)" fill="none" stroke="#fff" stroke-miterlimit="10" stroke-width="1.5"/>
    <path id="Trazado_182" data-name="Trazado 182" d="M144.623,233.258V217.694a.647.647,0,0,0-.585-.694H120.085a.647.647,0,0,0-.585.694v16.224a.647.647,0,0,0,.585.694h10.264" transform="translate(-119.5 -217)" fill="none" stroke="#fff" stroke-linecap="round" stroke-miterlimit="10" stroke-width="1.5"/>
    <path id="Trazado_183" data-name="Trazado 183" d="M144.2,231.656V222.49a.48.48,0,0,0-.47-.49H124.47a.48.48,0,0,0-.47.49v11.452a.48.48,0,0,0,.47.49h8.253" transform="translate(-121.669 -219.41)" fill="none" stroke="#fff" stroke-linecap="round" stroke-miterlimit="10" stroke-width="1"/>
    <path id="Trazado_184" data-name="Trazado 184" d="M125.5,227.572h4.662L131.2,225.5l1.036,4.144,1.036-2.072.518,1.036H140l.518,1.036,1.036-3.626.518,2.59h2.072" transform="translate(-122.392 -221.097)" fill="none" stroke="#fff" stroke-linejoin="round" stroke-miterlimit="10" stroke-width="0.65"/>
    <path id="Trazado_185" data-name="Trazado 185" d="M151.824,237.09H148.2l-.518-1.554-1.036,3.108-1.036-4.144-.518,3.108H142.5" transform="translate(-130.586 -225.435)" fill="none" stroke="#fff" stroke-linejoin="round" stroke-miterlimit="10" stroke-width="0.65"/>
    <path id="Trazado_186" data-name="Trazado 186" d="M140.5,240.5" transform="translate(-129.622 -228.327)" fill="none" stroke="#fff" stroke-miterlimit="10" stroke-width="1.5"/>
    <line id="Línea_35350" data-name="Línea 35350" x2="4.662" transform="translate(6.216 12.173)" fill="none" stroke="#fff" stroke-miterlimit="10" stroke-width="0.65"/>
    <line id="Línea_35351" data-name="Línea 35351" x2="2.59" transform="translate(2.849 12.173)" fill="none" stroke="#fff" stroke-miterlimit="10" stroke-width="0.65"/>
  </g>
</svg>
