<svg xmlns="http://www.w3.org/2000/svg" width="27.623" height="12.21" viewBox="0 0 27.623 12.21">
  <g id="Grupo_182" data-name="Grupo 182" transform="translate(-178.25 -287.75)">
    <rect id="Rectángulo_400" data-name="Rectángulo 400" width="26.123" height="10.71" rx="1.548" transform="translate(179 288.5)" fill="none" stroke="#fff" stroke-miterlimit="10" stroke-width="1.5"/>
    <rect id="Rectángulo_401" data-name="Rectángulo 401" width="1.306" height="1.306" transform="translate(180.829 290.067)" fill="#fff"/>
    <rect id="Rectángulo_402" data-name="Rectángulo 402" width="1.306" height="1.306" transform="translate(183.441 290.067)" fill="#fff"/>
    <rect id="Rectángulo_403" data-name="Rectángulo 403" width="1.306" height="1.306" transform="translate(186.053 290.067)" fill="#fff"/>
    <rect id="Rectángulo_404" data-name="Rectángulo 404" width="1.306" height="1.306" transform="translate(188.666 290.067)" fill="#fff"/>
    <rect id="Rectángulo_405" data-name="Rectángulo 405" width="1.306" height="1.306" transform="translate(191.278 290.067)" fill="#fff"/>
    <rect id="Rectángulo_406" data-name="Rectángulo 406" width="1.306" height="1.306" transform="translate(193.89 290.067)" fill="#fff"/>
    <rect id="Rectángulo_407" data-name="Rectángulo 407" width="1.306" height="1.306" transform="translate(196.502 290.067)" fill="#fff"/>
    <rect id="Rectángulo_408" data-name="Rectángulo 408" width="1.306" height="1.306" transform="translate(199.115 290.067)" fill="#fff"/>
    <rect id="Rectángulo_409" data-name="Rectángulo 409" width="1.306" height="1.306" transform="translate(201.727 290.067)" fill="#fff"/>
    <rect id="Rectángulo_410" data-name="Rectángulo 410" width="1.306" height="1.306" transform="translate(180.829 292.157)" fill="#fff"/>
    <rect id="Rectángulo_411" data-name="Rectángulo 411" width="1.306" height="1.306" transform="translate(183.441 292.157)" fill="#fff"/>
    <rect id="Rectángulo_412" data-name="Rectángulo 412" width="1.306" height="1.306" transform="translate(186.053 292.157)" fill="#fff"/>
    <rect id="Rectángulo_413" data-name="Rectángulo 413" width="1.306" height="1.306" transform="translate(188.666 292.157)" fill="#fff"/>
    <rect id="Rectángulo_414" data-name="Rectángulo 414" width="1.306" height="1.306" transform="translate(191.278 292.157)" fill="#fff"/>
    <rect id="Rectángulo_415" data-name="Rectángulo 415" width="9.666" height="1.306" transform="translate(187.098 296.337)" fill="#fff"/>
    <rect id="Rectángulo_416" data-name="Rectángulo 416" width="5.486" height="1.306" transform="translate(180.829 296.337)" fill="#fff"/>
    <rect id="Rectángulo_417" data-name="Rectángulo 417" width="5.486" height="1.306" transform="translate(180.829 294.247)" fill="#fff"/>
    <rect id="Rectángulo_418" data-name="Rectángulo 418" width="5.486" height="1.306" transform="translate(197.547 296.337)" fill="#fff"/>
    <rect id="Rectángulo_419" data-name="Rectángulo 419" width="5.486" height="1.306" transform="translate(197.547 294.247)" fill="#fff"/>
    <rect id="Rectángulo_420" data-name="Rectángulo 420" width="1.306" height="1.306" transform="translate(193.89 292.157)" fill="#fff"/>
    <rect id="Rectángulo_421" data-name="Rectángulo 421" width="1.306" height="1.306" transform="translate(187.621 294.247)" fill="#fff"/>
    <rect id="Rectángulo_422" data-name="Rectángulo 422" width="1.306" height="1.306" transform="translate(190.233 294.247)" fill="#fff"/>
    <rect id="Rectángulo_423" data-name="Rectángulo 423" width="1.306" height="1.306" transform="translate(192.845 294.247)" fill="#fff"/>
    <rect id="Rectángulo_424" data-name="Rectángulo 424" width="1.306" height="1.306" transform="translate(195.458 294.247)" fill="#fff"/>
    <rect id="Rectángulo_425" data-name="Rectángulo 425" width="1.306" height="1.306" transform="translate(196.502 292.157)" fill="#fff"/>
    <rect id="Rectángulo_426" data-name="Rectángulo 426" width="1.306" height="1.306" transform="translate(199.115 292.157)" fill="#fff"/>
    <rect id="Rectángulo_427" data-name="Rectángulo 427" width="1.306" height="1.306" transform="translate(201.727 292.157)" fill="#fff"/>
  </g>
</svg>
