<svg xmlns="http://www.w3.org/2000/svg" width="27.342" height="16.949" viewBox="0 0 27.342 16.949">
  <g id="Grupo_180" data-name="Grupo 180" transform="translate(0.75 0.75)">
    <rect id="Rectángulo_397" data-name="Rectángulo 397" width="25.842" height="15.449" rx="0.871" transform="translate(0 0)" fill="none" stroke="#fff" stroke-miterlimit="10" stroke-width="1.5"/>
    <path id="Trazado_187" data-name="Trazado 187" d="M243,233.375h2.887a.784.784,0,0,0,.582-.258l1.28-1.408a.24.24,0,0,1,.406.012l3.384,4.989a.409.409,0,0,0,.625.1l5.454-10.708a.393.393,0,0,1,.581.068l3.751,10.646a.124.124,0,0,0,.238-.017l.981-4.908a.335.335,0,0,1,.328-.269h4.782" transform="translate(-242.719 -224.596)" fill="none" stroke="#fff" stroke-miterlimit="10" stroke-width="1.5"/>
    <line id="Línea_35352" data-name="Línea 35352" x2="25.842" transform="translate(0.281 4.775)" fill="none" stroke="#fff" stroke-miterlimit="10" stroke-width="0.5"/>
    <line id="Línea_35353" data-name="Línea 35353" x2="25.842" transform="translate(0.281 12.359)" fill="none" stroke="#fff" stroke-miterlimit="10" stroke-width="0.5"/>
  </g>
</svg>
