<svg xmlns="http://www.w3.org/2000/svg" xmlns:xlink="http://www.w3.org/1999/xlink" width="208" height="186.5" viewBox="0 0 208 186.5">
  <defs>
    <filter id="_" x="69.5" y="22.5" width="71" height="164" filterUnits="userSpaceOnUse">
      <feOffset dy="3" input="SourceAlpha"/>
      <feGaussianBlur stdDeviation="3" result="blur"/>
      <feFlood flood-opacity="0.29"/>
      <feComposite operator="in" in2="blur"/>
      <feComposite in="SourceGraphic"/>
    </filter>
    <filter id="Polígono_1" x="0" y="0" width="208" height="183" filterUnits="userSpaceOnUse">
      <feOffset dy="3" input="SourceAlpha"/>
      <feGaussianBlur stdDeviation="3" result="blur-2"/>
      <feFlood flood-opacity="0.29"/>
      <feComposite operator="in" in2="blur-2"/>
      <feComposite in="SourceGraphic"/>
    </filter>
  </defs>
  <g id="Grupo_131" data-name="Grupo 131" transform="translate(-854 -214)">
    <g transform="matrix(1, 0, 0, 1, 854, 214)" filter="url(#_)">
      <text id="_2" data-name="!" transform="translate(84.5 142.5)" fill="#fff" stroke="#fff" stroke-width="6" font-size="121" font-family="TimesNewRomanPSMT, Times New Roman" letter-spacing="0.025em"><tspan x="0" y="0">!</tspan></text>
    </g>
    <g transform="matrix(1, 0, 0, 1, 854, 214)" filter="url(#Polígono_1)">
      <g id="Polígono_1-2" data-name="Polígono 1" transform="translate(9 6)" fill="none">
        <path d="M82,22.578a15,15,0,0,1,26,0l69.055,119.938a15,15,0,0,1-13,22.484H25.945a15,15,0,0,1-13-22.484Z" stroke="none"/>
        <path d="M 95 27.06224060058594 C 94.20876312255859 27.06224060058594 93.11540222167969 27.32301330566406 92.40013122558594 28.56533813476562 L 23.34506225585938 148.5031127929688 C 22.63127136230469 149.7428741455078 22.95252990722656 150.8179779052734 23.34776306152344 151.5015411376953 C 23.74296569824219 152.1851501464844 24.51437377929688 153 25.94493103027344 153 L 164.0550689697266 153 C 165.4856262207031 153 166.2570037841797 152.1851501464844 166.6522369384766 151.5015411376953 C 167.0474395751953 150.8179779052734 167.3687286376953 149.7428741455078 166.6549377441406 148.5031127929688 L 97.59986877441406 28.56536865234375 C 96.88456726074219 27.32301330566406 95.79123687744141 27.06224060058594 95 27.06224060058594 M 95 15.062255859375 C 100.0572891235352 15.062255859375 105.1145858764648 17.56742858886719 107.9993362426758 22.57777404785156 L 177.0543975830078 142.5155334472656 C 182.8119659423828 152.5155029296875 175.5940704345703 165.0000152587891 164.0550689697266 165.0000152587891 L 25.94493103027344 165.0000152587891 C 14.40589904785156 165.0000152587891 7.188034057617188 152.5155029296875 12.94560241699219 142.5155334472656 L 82.00066375732422 22.57777404785156 C 84.88541412353516 17.56742858886719 89.94271087646484 15.062255859375 95 15.062255859375 Z" stroke="none" fill="#fff"/>
      </g>
    </g>
  </g>
</svg>
