<svg xmlns="http://www.w3.org/2000/svg" width="256" height="202" viewBox="0 0 256 202">
  <g id="Grupo_153" data-name="Grupo 153" transform="translate(8253 20699)">
    <rect id="Rectángulo_339" data-name="Rectángulo 339" width="256" height="202" transform="translate(-8253 -20699)" fill="#e88300"/>
    <text id="POST-ANÉSTESICO" transform="translate(-8211 -20510)" fill="#fff" font-size="20" font-family="SFUIDisplay-Bold, SF UI Display" font-weight="700" letter-spacing="0.015em"><tspan x="0" y="0">POST-ANÉSTESICO</tspan></text>
    <g id="Grupo_126" data-name="Grupo 126" transform="translate(15414 1005.762)">
      <g id="Grupo_107" data-name="Grupo 107" transform="translate(-23622.002 -21698)">
        <path id="Trazado_72" data-name="Trazado 72" d="M1899.859,781.763H1781.389l-32.8-33.65a1.489,1.489,0,0,0-2.144,0l-6.728,6.9a1.583,1.583,0,0,0,0,2.2l35.539,36.46a4.823,4.823,0,0,0,2.54,1.344h122.063a1.729,1.729,0,0,0,1.707-1.751v-9.755A1.73,1.73,0,0,0,1899.859,781.763Z" transform="translate(-1739.272 -675.132)" fill="#fff"/>
        <path id="Trazado_73" data-name="Trazado 73" d="M1891.358,766.354h-103.79l-23.523-24.209a6.222,6.222,0,0,0-8.978,0,6.668,6.668,0,0,0,0,9.238l25,25.73a6.27,6.27,0,0,0,3.017,1.729,6.165,6.165,0,0,0,2.6.577h105.671a6.443,6.443,0,0,0,6.348-6.533h0A6.442,6.442,0,0,0,1891.358,766.354Z" transform="translate(-1737.815 -675.909)" fill="#fff"/>
        <rect id="Rectángulo_314" data-name="Rectángulo 314" width="4.995" height="9.107" transform="translate(45.824 121.876)" fill="#fff"/>
        <rect id="Rectángulo_315" data-name="Rectángulo 315" width="4.995" height="9.107" transform="translate(144.127 121.876)" fill="#fff"/>
        <g id="Grupo_105" data-name="Grupo 105" transform="translate(36.728 130.262)">
          <path id="Trazado_74" data-name="Trazado 74" d="M1775.422,812.526h-4.61v-5.038a7.359,7.359,0,0,1,2.07-5.371,8.5,8.5,0,0,1,6.32-2.19c4.863.039,100.251,0,101.213,0,6.06,0,9.132,2.654,9.132,7.889v4.6h-4.612v-4.6c0-2.267-.652-3.278-4.519-3.278-.962,0-96.369.039-101.25,0a4.419,4.419,0,0,0-3.037.854,2.953,2.953,0,0,0-.707,2.1Z" transform="translate(-1770.812 -799.926)" fill="#fff"/>
        </g>
        <circle id="Elipse_22" data-name="Elipse 22" cx="5.764" cy="5.764" r="5.764" transform="translate(33.575 141.982)" fill="#fff"/>
        <circle id="Elipse_23" data-name="Elipse 23" cx="5.764" cy="5.764" r="5.764" transform="translate(147.394 141.982)" fill="#fff"/>
        <path id="Rectángulo_316" data-name="Rectángulo 316" d="M4.463,0h0A3.882,3.882,0,0,1,8.344,3.882V90.629a0,0,0,0,1,0,0H0a0,0,0,0,1,0,0V4.463A4.463,4.463,0,0,1,4.463,0Z" transform="translate(108.811 0)" fill="#fff"/>
        <g id="Grupo_106" data-name="Grupo 106" transform="translate(58.832 78.58)">
          <path id="Trazado_75" data-name="Trazado 75" d="M1798.967,777.235h-4.456v-16.4c0-2.388,1.668-7,7.983-7.359,5.9-.334,38.9-.338,40.3-.338v4.016c-.342,0-34.264,0-40.022.33-3.462.2-3.789,2.63-3.807,3.372Z" transform="translate(-1794.511 -753.139)" fill="#fff" stroke="#fff" stroke-miterlimit="10" stroke-width="1"/>
        </g>
      </g>
      <path id="Trazado_79" data-name="Trazado 79" d="M1582.048,860.344l6.068.012c2.48.005,2.483-3.849,0-3.854q-3.033-.005-6.068-.014" transform="translate(-25085.971 -22543.248)" fill="none" stroke="#fff" stroke-miterlimit="10" stroke-width="1.5"/>
      <g id="Grupo_109" data-name="Grupo 109" transform="translate(-23553.998 -21693.582)">
        <line id="Línea_25231" data-name="Línea 25231" y2="1.714" transform="translate(10.864 23.981)" fill="none" stroke="#fff" stroke-miterlimit="10" stroke-width="1.5"/>
        <path id="Trazado_67" data-name="Trazado 67" d="M1592.083,859.306q-15.1-.034-30.2.014a16.59,16.59,0,0,1-4.083-.089c-2.14-.585-1.69-3.107-1.69-4.862a1.889,1.889,0,0,0-3.777,0c0,2.081-.13,4.224,1.009,6.067,1.409,2.278,3.9,2.783,6.363,2.752,3.328-.041,6.655-.027,9.981-.031h.118V868.5h-5.346a1.276,1.276,0,0,0-1.263,1.29v7.043" transform="translate(-1552.323 -852.507)" fill="none" stroke="#fff" stroke-miterlimit="10" stroke-width="1.5"/>
        <path id="Trazado_68" data-name="Trazado 68" d="M1572.04,873.411v-8.059a1.29,1.29,0,0,0-1.289-1.291h-5.775v-5.34q9.439,0,18.882.012" transform="translate(-1544.098 -848.071)" fill="none" stroke="#fff" stroke-miterlimit="10" stroke-width="1.5"/>
        <path id="Trazado_69" data-name="Trazado 69" d="M1558.792,867.5v7.95a3.171,3.171,0,0,0,3.116,3.222h.614l0,.015V885.4a1.914,1.914,0,0,0,1.881,1.943h.917v4.08c0,3.523,2.234,8.766,8.391,8.766H1586.5v-3.854h-12.794c-4.379,0-4.653-4.1-4.661-4.912v-4.08h1.227a1.912,1.912,0,0,0,1.879-1.943v-6.732a3.87,3.87,0,0,0,3.73-3.928V867.5" transform="translate(-1547.927 -841.805)" fill="#fff" stroke="#fff" stroke-miterlimit="10" stroke-width="1.5"/>
        <path id="Trazado_71" data-name="Trazado 71" d="M18.559,0H0" transform="translate(10.138 25.695)" fill="#fff" stroke="#fff" stroke-width="1.5"/>
      </g>
    </g>
  </g>
</svg>
