<svg xmlns="http://www.w3.org/2000/svg" width="256" height="202" viewBox="0 0 256 202">
  <g id="Grupo_225" data-name="Grupo 225" transform="translate(-114 -176)">
    <rect id="Rectángulo_462" data-name="Rectángulo 462" width="256" height="202" rx="10" transform="translate(114 176)" fill="none"/>
    <g id="Pre_anéstesico" data-name="Pre anéstesico" transform="translate(-1288.998 -187.416)">
      <text id="PRE-ANÉSTESICO" transform="translate(1446 551)" fill="#fff" font-size="20" font-family="SegoeUI-Bold, Segoe UI" font-weight="700" letter-spacing="0.01em"><tspan x="0" y="0">PRE-ANÉSTESICO</tspan></text>
      <g id="Grupo_174" data-name="Grupo 174" transform="translate(877.248 296.969)">
        <path id="Trazado_165" data-name="Trazado 165" d="M802.175,103.293h.957" transform="translate(-143.493 -12.942)" fill="none" stroke="red" stroke-miterlimit="10" stroke-width="1"/>
        <g id="Grupo_171" data-name="Grupo 171" transform="translate(568.751 100.51)">
          <path id="Trazado_166" data-name="Trazado 166" d="M568.751,134.31v8.825a4.592,4.592,0,0,0,4.592,4.592h9.206V129.718h-9.206A4.592,4.592,0,0,0,568.751,134.31Zm9.743,8.69h-4.527a1.476,1.476,0,1,1,0-2.952h4.527a1.476,1.476,0,1,1,0,2.952Zm0-8.463a1.476,1.476,0,1,1,0,2.952h-4.527a1.476,1.476,0,1,1,0-2.952Z" transform="translate(-568.751 -129.697)" fill="#fff"/>
          <path id="Trazado_167" data-name="Trazado 167" d="M648.689,129.718H609.566v8.955h3.261l3.187-4.285a1.318,1.318,0,0,1,2.008-.14l3.367,3.441h5.9l2.773-3.5a1.32,1.32,0,0,1,1.1-.5,1.336,1.336,0,0,1,1.05.6l4.132,6.257,1.781-2.549a1.319,1.319,0,0,1,2.137-.052l1.777,2.3,1.751-2.557a1.328,1.328,0,0,1,1.091-.583l8.382-.016v2.362l-7.874.015-2.213,3.23a1.335,1.335,0,0,1-1.057.582,1.321,1.321,0,0,1-1.087-.519l-1.785-2.31-1.843,2.637a1.329,1.329,0,0,1-1.088.572H636.3a1.329,1.329,0,0,1-1.09-.6l-4.18-6.329-2.238,2.824a1.321,1.321,0,0,1-1.039.506h-6.772a1.314,1.314,0,0,1-.947-.4l-2.861-2.925-2.8,3.771a1.335,1.335,0,0,1-1.064.539h-3.744v6.692h39.123a4.592,4.592,0,0,0,4.592-4.592V134.31a4.592,4.592,0,0,0-4.591-4.592Z" transform="translate(-593.841 -129.697)" fill="#fff"/>
          <rect id="Rectángulo_383" data-name="Rectángulo 383" width="1.926" height="0.021" transform="translate(13.798)" fill="#fff"/>
          <rect id="Rectángulo_384" data-name="Rectángulo 384" width="0.018" height="2.362" transform="translate(15.707 8.977)" fill="#fff"/>
        </g>
        <g id="Grupo_172" data-name="Grupo 172" transform="translate(596.509 82.24)">
          <path id="Trazado_168" data-name="Trazado 168" d="M690.666,148.964a4.592,4.592,0,0,1,4.592-4.592h15.995V133.059l22.012,8.264a5.929,5.929,0,0,0,7.207-2.829,5.614,5.614,0,0,0-3.106-7.915l-33.013-12.394a13.228,13.228,0,0,0-6.387-1.634H693.56a17.249,17.249,0,1,0-5.045,0h-4.208a13.441,13.441,0,0,0-5.166,1.027h0l-34.466,12.94a5.856,5.856,0,0,0-3.6,7.2,5.749,5.749,0,0,0,7.495,3.624l22.258-8.356v43.289h.007V219.3a6.355,6.355,0,0,0,6.355,6.355h1.007a6.355,6.355,0,0,0,6.355-6.355V176.272h6.12Z" transform="translate(-640.799 -82.24)" fill="#fff"/>
          <path id="Trazado_169" data-name="Trazado 169" d="M788.063,391.853V410a6.355,6.355,0,0,0,6.355,6.355h1.007A6.355,6.355,0,0,0,801.78,410V391.853Z" transform="translate(-731.327 -272.569)" fill="#fff"/>
        </g>
        <g id="Grupo_173" data-name="Grupo 173" transform="translate(648.983 146.872)">
          <path id="Trazado_170" data-name="Trazado 170" d="M796.149,351.757h43.7a3.234,3.234,0,0,0,3.183-3.275v-6.093a3.234,3.234,0,0,0-3.183-3.275h-43.7a3.234,3.234,0,0,0-3.183,3.275v6.093a3.234,3.234,0,0,0,3.183,3.275Zm25.667-9.531a1.719,1.719,0,0,1,1.7-1.743h16.327a1.719,1.719,0,0,1,1.694,1.743h0a1.719,1.719,0,0,1-1.694,1.743H823.51a1.719,1.719,0,0,1-1.695-1.743Zm1.7,4.495h16.327a1.743,1.743,0,0,1,0,3.486H823.51a1.743,1.743,0,0,1,0-3.486Zm-21.131-4.495a1.719,1.719,0,0,1,1.694-1.743h14.64a1.719,1.719,0,0,1,1.694,1.743h0a1.719,1.719,0,0,1-1.694,1.743h-14.64a1.719,1.719,0,0,1-1.694-1.743Zm1.694,4.495h14.64a1.743,1.743,0,0,1,0,3.486h-14.64a1.743,1.743,0,0,1,0-3.486Zm-9.788-4.495a1.719,1.719,0,0,1,1.694-1.743h1.975a1.719,1.719,0,0,1,1.694,1.743h0a1.719,1.719,0,0,1-1.694,1.743H795.98a1.719,1.719,0,0,1-1.694-1.743Zm1.694,4.495h1.975a1.743,1.743,0,0,1,0,3.486H795.98a1.743,1.743,0,0,1,0-3.486Z" transform="translate(-786.814 -304.781)" fill="#fff"/>
          <path id="Trazado_171" data-name="Trazado 171" d="M799.322,292.717v3.366h3.528v-3.366a1.747,1.747,0,0,1,1.719-1.771H808v-3.653h-3.432a1.747,1.747,0,0,1-1.719-1.771v-3.55h-3.528v3.55a1.747,1.747,0,0,1-1.719,1.771h-3.255v3.653H797.6A1.747,1.747,0,0,1,799.322,292.717Z" transform="translate(-787.665 -269.655)" fill="#fff"/>
          <path id="Trazado_172" data-name="Trazado 172" d="M777,308.741a3.851,3.851,0,0,0,3.8,3.9h74.413a3.851,3.851,0,0,0,3.8-3.9V267.3H777Zm70.639.168a8.818,8.818,0,1,1,8.538-8.814,8.689,8.689,0,0,1-8.538,8.814Zm6.459-22.731v.286a1.357,1.357,0,0,1-1.338,1.376H820.977a1.357,1.357,0,0,1-1.338-1.376v-.286a1.357,1.357,0,0,1,1.338-1.376H852.76a1.357,1.357,0,0,1,1.34,1.376Zm-34.636-13.366a1.357,1.357,0,0,1,1.337-1.376h25.744a1.357,1.357,0,0,1,1.337,1.376v.286a1.357,1.357,0,0,1-1.337,1.376H820.8a1.357,1.357,0,0,1-1.337-1.376Zm0,6.683a1.357,1.357,0,0,1,1.337-1.376h15.62a1.357,1.357,0,0,1,1.338,1.376v.286a1.357,1.357,0,0,1-1.338,1.376H820.8a1.357,1.357,0,0,1-1.337-1.376Zm-15.986-6.683a1.357,1.357,0,0,1,1.338-1.376h10.113a1.357,1.357,0,0,1,1.338,1.376v.286a1.357,1.357,0,0,1-1.338,1.376H804.814a1.357,1.357,0,0,1-1.338-1.376Zm0,6.683a1.357,1.357,0,0,1,1.338-1.376h10.113a1.357,1.357,0,0,1,1.338,1.376v.286a1.357,1.357,0,0,1-1.338,1.376H804.814a1.357,1.357,0,0,1-1.338-1.376Zm0,6.683a1.357,1.357,0,0,1,1.338-1.376h10.113a1.357,1.357,0,0,1,1.338,1.376v.286a1.357,1.357,0,0,1-1.338,1.376H804.814a1.357,1.357,0,0,1-1.338-1.376Zm-22.126-8.536a1.747,1.747,0,0,1,1.719-1.77h3.254v-3.55a1.747,1.747,0,0,1,1.719-1.771H792.8a1.747,1.747,0,0,1,1.719,1.771v3.55h3.432a1.747,1.747,0,0,1,1.719,1.77v4.913a1.748,1.748,0,0,1-1.719,1.771h-3.432v3.366a1.747,1.747,0,0,1-1.719,1.77h-4.757a1.747,1.747,0,0,1-1.719-1.77v-3.366H783.07a1.747,1.747,0,0,1-1.719-1.771Zm-.533,20.6a5.6,5.6,0,0,1,5.517-5.675h43.7a5.6,5.6,0,0,1,5.517,5.675v6.093a5.6,5.6,0,0,1-5.517,5.675h-43.7a5.6,5.6,0,0,1-5.517-5.675Z" transform="translate(-777 -260.634)" fill="#fff"/>
          <path id="Trazado_173" data-name="Trazado 173" d="M950.45,335.781a6.416,6.416,0,1,0,6.2,6.413,6.318,6.318,0,0,0-6.2-6.413Z" transform="translate(-879.811 -302.732)" fill="#fff"/>
          <path id="Trazado_174" data-name="Trazado 174" d="M855.249,250H780.836a3.835,3.835,0,0,0-3.769,3.464h81.952a3.836,3.836,0,0,0-3.77-3.464Z" transform="translate(-777.041 -250)" fill="#fff"/>
          <path id="Trazado_175" data-name="Trazado 175" d="M989.866,258.99h-.084a4.033,4.033,0,0,1,.025.441v2.76h.059Z" transform="translate(-907.803 -255.526)" fill="#fff"/>
          <path id="Trazado_176" data-name="Trazado 176" d="M777,259.431a4.065,4.065,0,0,1,.026-.441H777Z" transform="translate(-777 -255.526)" fill="#fff"/>
        </g>
      </g>
    </g>
  </g>
</svg>
