<svg xmlns="http://www.w3.org/2000/svg" width="256" height="202" viewBox="0 0 256 202">
  <g id="Grupo_226" data-name="Grupo 226" transform="translate(-114 -396)">
    <rect id="Rectángulo_304" data-name="Rectángulo 304" width="256" height="202" rx="10" transform="translate(114 396)" fill="none"/>
    <g id="Trans_anéstesico" data-name="Trans anéstesico" transform="translate(-1291 -209)">
      <text id="TRANS-ANÉSTESICO" transform="translate(1434 795)" fill="#fff" font-size="20" font-family="SegoeUI-Bold, Segoe UI" font-weight="700" letter-spacing="0.01em"><tspan x="0" y="0">TRANS-ANÉSTESICO</tspan></text>
      <g id="Grupo_170" data-name="Grupo 170" transform="translate(1284.85 325.148)">
        <rect id="Rectángulo_378" data-name="Rectángulo 378" width="6.821" height="22.779" transform="translate(265.952 318.189)" fill="#fff"/>
        <path id="Trazado_148" data-name="Trazado 148" d="M232.556,296.161v-1.7a2.658,2.658,0,0,1,2.706-2.606h0a2.311,2.311,0,0,1,2.354,2.266v46.851h-5.06V296.161" fill="#fff"/>
        <path id="Trazado_149" data-name="Trazado 149" d="M238.1,298.59l3.541.007a1.125,1.125,0,0,0,0-2.249l-3.541-.008" fill="none" stroke="#fff" stroke-miterlimit="10" stroke-width="1"/>
        <rect id="Rectángulo_379" data-name="Rectángulo 379" width="138.453" height="13.073" rx="3.969" transform="translate(177.07 368.529)" fill="#fff"/>
        <g id="Grupo_166" data-name="Grupo 166" transform="translate(212.027 395.382)">
          <rect id="Rectángulo_380" data-name="Rectángulo 380" width="61.387" height="40.062" transform="translate(5.684)" fill="#fff"/>
          <path id="Rectángulo_381" data-name="Rectángulo 381" d="M5.581,0H19.326V6.252H0V5.581A5.581,5.581,0,0,1,5.581,0Z" transform="translate(0 43.062)" fill="#fff"/>
          <path id="Rectángulo_382" data-name="Rectángulo 382" d="M0,0H13.745a5.581,5.581,0,0,1,5.581,5.581v.672H0Z" transform="translate(53.998 43.062)" fill="#fff"/>
        </g>
        <path id="Trazado_150" data-name="Trazado 150" d="M292.971,385.452a1.44,1.44,0,0,0,.621-1.119c0-.956-1.166-1.731-2.605-1.731h-84.6c-1.438,0-2.6.775-2.6,1.731a3.522,3.522,0,0,0,.621,3.359,1.32,1.32,0,0,0,0,2.239,1.32,1.32,0,0,1-.621,1.119,1.253,1.253,0,0,1,0,1.832,1.32,1.32,0,0,1,0,2.239c0,.956,1.167,1.731,2.6,1.731h84.6c1.439,0,2.605-.775,2.605-1.731a1.32,1.32,0,0,1,0-2.239,1.253,1.253,0,0,1,0-1.832,3.522,3.522,0,0,0-.621-3.358,1.32,1.32,0,0,1,.621-1.12A1.442,1.442,0,0,0,292.971,385.452Z" transform="translate(0 1.758)" fill="#fff"/>
        <g id="Grupo_167" data-name="Grupo 167">
          <path id="Trazado_151" data-name="Trazado 151" d="M277.91,304.712l-1.078-1.162-3.895,3.735a.653.653,0,0,1-.921-.025l-1.055-1.138-2.424,1.743a.656.656,0,0,1-.381.121.647.647,0,0,1-.131-.013.621.621,0,0,1-.408-.273l-3.945-6.147-2.447,2.647a.65.65,0,0,1-.474.2h-5.914v5.9H276.45v1H254.837v.261a1.288,1.288,0,0,0,1.286,1.286h26.49a1.288,1.288,0,0,0,1.286-1.286V311.3h-3.268v-1H283.9v-5.388h-5.513A.64.64,0,0,1,277.91,304.712Z" fill="#fff"/>
          <path id="Trazado_152" data-name="Trazado 152" d="M254.837,298.813V298.8Z" fill="#fff"/>
          <circle id="Elipse_30" data-name="Elipse 30" cx="0.674" cy="0.674" r="0.674" transform="translate(281.114 316.406)" fill="#fff"/>
          <circle id="Elipse_31" data-name="Elipse 31" cx="0.674" cy="0.674" r="0.674" transform="translate(260.446 316.406)" fill="#fff"/>
          <circle id="Elipse_32" data-name="Elipse 32" cx="0.674" cy="0.674" r="0.674" transform="translate(256.688 316.406)" fill="#fff"/>
          <path id="Trazado_153" data-name="Trazado 153" d="M283.9,299.8v0Z" fill="#fff"/>
          <path id="Trazado_154" data-name="Trazado 154" d="M283.948,295.185h-29.16a2.839,2.839,0,0,0-2.839,2.839v19.331a2.839,2.839,0,0,0,2.839,2.839h29.16a2.839,2.839,0,0,0,2.84-2.839V298.024A2.839,2.839,0,0,0,283.948,295.185Zm-26.585,23.57a1.674,1.674,0,1,1,1.674-1.674,1.674,1.674,0,0,1-1.674,1.674Zm3.758,0a1.674,1.674,0,1,1,1.674-1.674,1.674,1.674,0,0,1-1.674,1.674Zm20.667,0a1.674,1.674,0,1,1,1.674-1.674,1.674,1.674,0,0,1-1.674,1.674Zm3.111-7.189a2.289,2.289,0,0,1-2.286,2.286h-26.49a2.289,2.289,0,0,1-2.286-2.286V298.813a2.289,2.289,0,0,1,2.286-2.287h26.49a2.289,2.289,0,0,1,2.286,2.287Z" fill="#fff"/>
          <path id="Trazado_155" data-name="Trazado 155" d="M280.631,298.8H283.9a1.287,1.287,0,0,0-1.284-1.274h-26.49a1.286,1.286,0,0,0-1.283,1.274h21.61v1H254.837v3.6h5.78l2.628-2.842a.647.647,0,0,1,.533-.2.624.624,0,0,1,.478.282l3.987,6.211,2.378-1.71a.659.659,0,0,1,.854.08l1.027,1.108,3.9-3.735a.65.65,0,0,1,.92.026l1.2,1.294h5.38V299.8h-3.268Z" fill="#fff"/>
        </g>
        <g id="Grupo_168" data-name="Grupo 168">
          <line id="Línea_35333" data-name="Línea 35333" y2="0.799" transform="translate(214.848 306.552)" fill="none" stroke="#fff" stroke-miterlimit="10" stroke-width="1"/>
          <path id="Trazado_156" data-name="Trazado 156" d="M232.051,296.326q-8.992-.02-17.983.008a10.019,10.019,0,0,1-2.431-.053c-1.274-.341-1.006-1.812-1.006-2.836a1.125,1.125,0,0,0-2.249,0,6.342,6.342,0,0,0,.6,3.54,4.081,4.081,0,0,0,3.789,1.606c1.98-.024,3.961-.017,5.942-.018h.069v3.117H215.6a.753.753,0,0,0-.752.753v4.11" fill="none" stroke="#fff" stroke-miterlimit="10" stroke-width="1"/>
          <path id="Trazado_157" data-name="Trazado 157" d="M225.154,306.553v-4.11a.753.753,0,0,0-.752-.753h-3.37v-3.116q5.51,0,11.019.007" fill="none" stroke="#fff" stroke-miterlimit="10" stroke-width="1"/>
          <line id="Línea_35334" data-name="Línea 35334" y1="0.799" transform="translate(225.154 306.552)" fill="none" stroke="#fff" stroke-miterlimit="10" stroke-width="1"/>
          <path id="Trazado_158" data-name="Trazado 158" d="M214.848,307.352v4.639a1.88,1.88,0,0,0,1.88,1.88h.369V317.8a1.134,1.134,0,0,0,1.134,1.133h.553v2.382a4.947,4.947,0,0,0,5.06,5.114h6.713v-2.248h-6.713a2.71,2.71,0,0,1-2.811-2.866V318.93h.74a1.134,1.134,0,0,0,1.134-1.133v-3.929a2.292,2.292,0,0,0,2.249-2.291v-4.225" fill="#fff" stroke="#fff" stroke-miterlimit="10" stroke-width="1"/>
          <line id="Línea_35335" data-name="Línea 35335" x1="10.307" transform="translate(214.848 307.352)" fill="#ed1c24" stroke="#fff" stroke-miterlimit="10" stroke-width="1"/>
        </g>
        <path id="Trazado_159" data-name="Trazado 159" d="M204.056,356.852" fill="none" stroke="red" stroke-miterlimit="10" stroke-width="2"/>
        <path id="Trazado_160" data-name="Trazado 160" d="M203.684,357.787" fill="none" stroke="red" stroke-miterlimit="10" stroke-width="2"/>
        <path id="Trazado_164" data-name="Trazado 164" d="M4.013,0h27.78a4.217,4.217,0,0,1,4.284,4.146,4.217,4.217,0,0,1-4.284,4.146H4.013A4.217,4.217,0,0,1-.271,4.146,4.217,4.217,0,0,1,4.013,0Z" transform="translate(212.611 353.426)" fill="#fff"/>
        <g id="Grupo_169" data-name="Grupo 169" transform="translate(0.381 -0.34)">
          <path id="Trazado_161" data-name="Trazado 161" d="M184.6,354.852a1.493,1.493,0,0,0-1.5,1.49V364.7a1.493,1.493,0,0,0,1.5,1.49h18.176a1.493,1.493,0,0,0,1.5-1.49v-8.138a12.2,12.2,0,0,1-19.088-1.712H184.6" transform="translate(0.849)" fill="#fff"/>
        </g>
        <circle id="Elipse_33" data-name="Elipse 33" cx="11.689" cy="11.689" r="11.689" transform="translate(185 334.408)" fill="#fff"/>
        <path id="Trazado_162" data-name="Trazado 162" d="M292.188,343.721H228.056v8.262h14.9a5.356,5.356,0,0,1,5.366,5.433,5.463,5.463,0,0,1-5.366,5.556h-14.9V365.3h79.8v-5.025C307.859,350.735,300.843,343.721,292.188,343.721Z" transform="translate(1.98)" fill="#fff"/>
        <path id="Trazado_163" data-name="Trazado 163" d="M215.647,363a5.5,5.5,0,0,1,0-11h11.687v-8.3h-3.356a22.273,22.273,0,0,0-13.82,4.4l-.242.5a18.047,18.047,0,0,1-3.109,6.93s-.09,1.072,0,.986V365.3c1.69.2,20.526,0,20.526,0V363Z" transform="translate(0.681)" fill="#fff"/>
      </g>
    </g>
  </g>
</svg>
