<svg xmlns="http://www.w3.org/2000/svg" width="256" height="202" viewBox="0 0 256 202">
  <g id="Grupo_152" data-name="Grupo 152" transform="translate(-1404 -543)">
    <g id="Trans_anestesico" data-name="Trans anestesico" transform="translate(1404 543)">
      <rect id="Trans_anestesico-2" data-name="Trans anestesico" width="256" height="202" rx="5" fill="#e88300"/>
    </g>
    <g id="Grupo_129" data-name="Grupo 129" transform="translate(-47.014 -299)">
      <rect id="Rectángulo_306" data-name="Rectángulo 306" width="6.693" height="20.271" transform="translate(1608.236 879.811)" fill="#fff"/>
      <path id="Trazado_58" data-name="Trazado 58" d="M1576.5,856.219v-1.668a2.605,2.605,0,0,1,2.655-2.551h0a2.266,2.266,0,0,1,2.31,2.219v45.863H1576.5V856.219" transform="translate(-1.04 0)" fill="#fff"/>
      <path id="Trazado_59" data-name="Trazado 59" d="M1575.994,856.474" transform="translate(-1.03 -0.084)" fill="none" stroke="red" stroke-miterlimit="10" stroke-width="1"/>
      <path id="Trazado_60" data-name="Trazado 60" d="M1582.048,858.7l3.475.007a1.1,1.1,0,0,0,0-2.207l-3.475-.008" transform="translate(-1.143 -0.084)" fill="none" stroke="#fff" stroke-miterlimit="10" stroke-width="1"/>
      <rect id="Rectángulo_307" data-name="Rectángulo 307" width="135.859" height="12.828" rx="3.969" transform="translate(1521.014 926.26)" fill="#fff"/>
      <g id="Grupo_101" data-name="Grupo 101" transform="translate(1555.316 953.589)">
        <rect id="Rectángulo_308" data-name="Rectángulo 308" width="60.237" height="41.274" transform="translate(5.577)" fill="#fff"/>
        <path id="Rectángulo_309" data-name="Rectángulo 309" d="M5.581,0H18.964a0,0,0,0,1,0,0V6.135a0,0,0,0,1,0,0H0a0,0,0,0,1,0,0V5.581A5.581,5.581,0,0,1,5.581,0Z" transform="translate(0 42.255)" fill="#fff"/>
        <path id="Rectángulo_310" data-name="Rectángulo 310" d="M0,0H13.383a5.581,5.581,0,0,1,5.581,5.581v.555a0,0,0,0,1,0,0H0a0,0,0,0,1,0,0V0A0,0,0,0,1,0,0Z" transform="translate(52.986 42.255)" fill="#fff"/>
      </g>
      <path id="Trazado_61" data-name="Trazado 61" d="M1635.244,945.548a1.416,1.416,0,0,0,.609-1.1c0-.938-1.144-1.7-2.556-1.7h-83.012c-1.412,0-2.556.76-2.556,1.7a1.295,1.295,0,0,1,0,2.2,1.295,1.295,0,0,1,0,2.2,1.295,1.295,0,0,1,0,2.2,1.231,1.231,0,0,1,0,1.8,1.295,1.295,0,0,1,0,2.2c0,.937,1.144,1.7,2.556,1.7H1633.3c1.412,0,2.556-.76,2.556-1.7a1.295,1.295,0,0,1,0-2.2,1.231,1.231,0,0,1,0-1.8,1.295,1.295,0,0,1,0-2.2,1.295,1.295,0,0,1,0-2.2A1.412,1.412,0,0,0,1635.244,945.548Z" transform="translate(-0.5 -1.7)" fill="#fff"/>
      <path id="Trazado_62" data-name="Trazado 62" d="M1548,916" transform="translate(-0.506 -1.199)" fill="none" stroke="red" stroke-miterlimit="10" stroke-width="2"/>
      <path id="Trazado_63" data-name="Trazado 63" d="M1547.627,916.935" transform="translate(-0.499 -1.217)" fill="none" stroke="red" stroke-miterlimit="10" stroke-width="2"/>
      <path id="Trazado_64" data-name="Trazado 64" d="M1573,924.272h79.269v-5.106a15.927,15.927,0,0,0-15.76-16.089H1573" transform="translate(-0.974 -0.957)" fill="#fff"/>
      <path id="Trazado_65" data-name="Trazado 65" d="M1554.335,907.7a21.1,21.1,0,0,1,13.216-4.624h3.3v21.194h-24.5" transform="translate(-0.475 -0.957)" fill="#fff"/>
      <rect id="Rectángulo_311" data-name="Rectángulo 311" width="37.927" height="8.366" rx="4.183" transform="translate(1552.016 911.314)" fill="#fff" stroke="#e88000" stroke-miterlimit="10" stroke-width="1.5"/>
      <rect id="Rectángulo_312" data-name="Rectángulo 312" width="34.186" height="24.541" rx="2.839" transform="translate(1594.49 855.27)" fill="#fff"/>
      <circle id="Elipse_18" data-name="Elipse 18" cx="1.152" cy="1.152" r="1.152" transform="translate(1598.65 875.604)" fill="none" stroke="#e88000" stroke-miterlimit="10" stroke-width="1"/>
      <circle id="Elipse_19" data-name="Elipse 19" cx="1.152" cy="1.152" r="1.152" transform="translate(1602.337 875.604)" fill="none" stroke="#e88000" stroke-miterlimit="10" stroke-width="1"/>
      <circle id="Elipse_20" data-name="Elipse 20" cx="1.152" cy="1.152" r="1.152" transform="translate(1622.618 875.604)" fill="none" stroke="#e88000" stroke-miterlimit="10" stroke-width="1"/>
      <rect id="Rectángulo_313" data-name="Rectángulo 313" width="29.499" height="16.019" rx="1.786" transform="translate(1596.833 858.059)" fill="#fff" stroke="#e88000" stroke-miterlimit="10" stroke-width="1"/>
      <path id="Trazado_66" data-name="Trazado 66" d="M1598.253,864.993h5.778a.165.165,0,0,0,.119-.045l2.743-2.9a.176.176,0,0,1,.249.014l4.2,6.387a.178.178,0,0,0,.232.028l2.657-1.866a.183.183,0,0,1,.221.015l1.254,1.322a.181.181,0,0,0,.233,0l4.148-3.884a.182.182,0,0,1,.234,0l1.309,1.379a.167.167,0,0,0,.119.045h5.778" transform="translate(-1.447 -0.187)" fill="none" stroke="#e88000" stroke-miterlimit="10" stroke-width="1"/>
      <line id="Línea_25227" data-name="Línea 25227" x2="21.338" transform="translate(1597.194 871.579)" fill="none" stroke="#e88000" stroke-miterlimit="10" stroke-width="1"/>
      <line id="Línea_25228" data-name="Línea 25228" x2="3.283" transform="translate(1622.635 871.579)" fill="none" stroke="#e88000" stroke-miterlimit="10" stroke-width="1"/>
      <line id="Línea_25229" data-name="Línea 25229" x2="21.338" transform="translate(1597.194 860.29)" fill="none" stroke="#e88000" stroke-miterlimit="10" stroke-width="1"/>
      <line id="Línea_25230" data-name="Línea 25230" x2="3.283" transform="translate(1622.635 860.29)" fill="none" stroke="#e88000" stroke-miterlimit="10" stroke-width="1"/>
      <g id="Grupo_102" data-name="Grupo 102" transform="translate(1551.737 852.497)">
        <line id="Línea_25231" data-name="Línea 25231" y2="0.982" transform="translate(6.346 13.731)" fill="none" stroke="#fff" stroke-miterlimit="10" stroke-width="1"/>
        <path id="Trazado_67" data-name="Trazado 67" d="M1575.551,856.4q-8.823-.019-17.645.008a9.882,9.882,0,0,1-2.385-.051c-1.25-.335-.987-1.779-.987-2.784a1.1,1.1,0,0,0-2.207,0,6.224,6.224,0,0,0,.59,3.474,4,4,0,0,0,3.717,1.576c1.944-.024,3.888-.016,5.831-.018h.069v3.059h-3.123a.738.738,0,0,0-.738.739v4.033" transform="translate(-1552.323 -852.507)" fill="none" stroke="#fff" stroke-miterlimit="10" stroke-width="1"/>
        <path id="Trazado_68" data-name="Trazado 68" d="M1569.021,866.551v-4.033a.739.739,0,0,0-.738-.739h-3.307v-3.058q5.4,0,10.812.007" transform="translate(-1552.56 -852.623)" fill="none" stroke="#fff" stroke-miterlimit="10" stroke-width="1"/>
        <line id="Línea_25232" data-name="Línea 25232" y1="0.982" transform="translate(16.46 13.731)" fill="none" stroke="#fff" stroke-miterlimit="10" stroke-width="1"/>
        <path id="Trazado_69" data-name="Trazado 69" d="M1558.792,867.5v4.552a1.844,1.844,0,0,0,1.844,1.845H1561v3.852a1.113,1.113,0,0,0,1.113,1.113h.543V881.2a4.855,4.855,0,0,0,4.964,5.019h7.569v-2.207h-7.569a2.658,2.658,0,0,1-2.757-2.812v-2.336h.726a1.112,1.112,0,0,0,1.112-1.113v-3.854a2.25,2.25,0,0,0,2.207-2.249V867.5" transform="translate(-1552.444 -852.788)" fill="#fff" stroke="#fff" stroke-miterlimit="10" stroke-width="1"/>
        <path id="Trazado_71" data-name="Trazado 71" d="M10.114,0H0" transform="translate(6.347 14.712)" fill="#fff" stroke="#fff" stroke-width="1"/>
      </g>
      <g id="Grupo_103" data-name="Grupo 103" transform="translate(1527.912 912.838)">
        <path id="Trazado_70" data-name="Trazado 70" d="M1529.619,914a1.5,1.5,0,0,0-1.575,1.418v7.958a1.5,1.5,0,0,0,1.575,1.418h19.132a1.5,1.5,0,0,0,1.575-1.418V915.63a13.474,13.474,0,0,1-9.333,3.641,13.209,13.209,0,0,1-10.76-5.271h-.614" transform="translate(-1528.044 -914)" fill="#fff" stroke="#e88000" stroke-miterlimit="10" stroke-width="1.5"/>
      </g>
      <circle id="Elipse_21" data-name="Elipse 21" cx="12.756" cy="12.756" r="12.756" transform="translate(1528.36 891.741)" fill="#fff" stroke="#e88000" stroke-miterlimit="10" stroke-width="1.5"/>
      <path id="Trazado_78" data-name="Trazado 78" d="M1582.048,858.7l3.475.007a1.1,1.1,0,0,0,0-2.207l-3.475-.008" transform="translate(-1.143 -0.084)" fill="none" stroke="#fff" stroke-miterlimit="10" stroke-width="1"/>
      <g id="Grupo_108" data-name="Grupo 108" transform="translate(1551.736 852.498)">
        <line id="Línea_25231-2" data-name="Línea 25231" y2="0.982" transform="translate(6.346 13.731)" fill="none" stroke="#fff" stroke-miterlimit="10" stroke-width="1"/>
        <path id="Trazado_67-2" data-name="Trazado 67" d="M1575.551,856.4q-8.823-.019-17.645.008a9.882,9.882,0,0,1-2.385-.051c-1.25-.335-.987-1.779-.987-2.784a1.1,1.1,0,0,0-2.207,0,6.224,6.224,0,0,0,.59,3.474,4,4,0,0,0,3.717,1.576c1.944-.024,3.888-.016,5.831-.018h.069v3.059h-3.123a.738.738,0,0,0-.738.739v4.033" transform="translate(-1552.323 -852.507)" fill="none" stroke="#fff" stroke-miterlimit="10" stroke-width="1"/>
        <path id="Trazado_68-2" data-name="Trazado 68" d="M1569.021,866.551v-4.033a.739.739,0,0,0-.738-.739h-3.307v-3.058q5.4,0,10.812.007" transform="translate(-1552.56 -852.623)" fill="none" stroke="#fff" stroke-miterlimit="10" stroke-width="1"/>
        <line id="Línea_25232-2" data-name="Línea 25232" y1="0.982" transform="translate(16.46 13.731)" fill="none" stroke="#fff" stroke-miterlimit="10" stroke-width="1"/>
        <path id="Trazado_69-2" data-name="Trazado 69" d="M1558.792,867.5v4.552a1.844,1.844,0,0,0,1.844,1.845H1561v3.852a1.113,1.113,0,0,0,1.113,1.113h.543V881.2a4.855,4.855,0,0,0,4.964,5.019h7.569v-2.207h-7.569a2.658,2.658,0,0,1-2.757-2.812v-2.336h.726a1.112,1.112,0,0,0,1.112-1.113v-3.854a2.25,2.25,0,0,0,2.207-2.249V867.5" transform="translate(-1552.444 -852.788)" fill="#fff" stroke="#fff" stroke-miterlimit="10" stroke-width="1"/>
        <path id="Trazado_71-2" data-name="Trazado 71" d="M10.114,0H0" transform="translate(6.347 14.712)" fill="#fff" stroke="#fff" stroke-width="1"/>
      </g>
    </g>
    <text id="TRANS-ANÉSTESICO" transform="translate(1431 734)" fill="#fff" font-size="20" font-family="SFUIDisplay-Bold, SF UI Display" font-weight="700" letter-spacing="0.015em"><tspan x="0" y="0">TRANS-ANÉSTESICO</tspan></text>
  </g>
</svg>
